<svg width="186" height="44" viewBox="0 0 186 44" fill="none" xmlns="http://www.w3.org/2000/svg">
<path d="M185.887 43H169.375V0.504028H185.375V8.24803H177.887V16.824H184.479V24.632H177.887V35.192H185.887V43Z" fill="#101415"/>
<path d="M146.726 26.872H143.142V43H134.438V0.504028H146.726C152.87 0.504028 155.11 3.76803 155.11 9.40003V17.976C155.11 23.608 152.87 26.872 146.726 26.872ZM143.142 8.24803V19.384H144.87C146.278 19.384 146.982 18.424 146.982 16.568V10.424C146.982 8.95203 146.278 8.24803 144.87 8.24803H143.142Z" fill="#101415"/>
<path d="M119.593 34.232H111.233H106.881H98.8169L103.489 0.504028H114.881L119.593 34.232ZM108.929 14.584L107.649 26.872H110.465L109.185 14.584H108.929Z" fill="#101415"/>
<path d="M76.416 32.888V25.656H84.544V32.312C84.544 39.736 81.024 43.384 74.368 43.384C67.52 43.384 64 39.416 64 32.184V11C64 3.44799 67.392 0.119995 74.176 0.119995C80.896 0.119995 84.416 3.384 84.48 10.808L84.544 15.736H76.416V10.744C76.416 9.016 75.776 8.18399 74.496 8.18399C73.216 8.18399 72.576 9.016 72.576 10.744V32.952C72.576 34.552 72.896 35.448 74.368 35.448C75.776 35.448 76.416 34.68 76.416 32.888Z" fill="#101415"/>
<path d="M49.892 43H29.924V35.064L40.676 8.24803H30.052V0.504028H49.572V8.31203L39.012 35.192H49.892V43Z" fill="#101415"/>
<path d="M16.512 43H0V0.504028H16V8.24803H8.512V16.824H15.104V24.632H8.512V35.192H16.512V43Z" fill="#101415"/>
<path d="M98.5935 40H119.594" stroke="#101415" stroke-width="5"/>
</svg>
