<svg width="24" height="24" viewBox="0 0 24 24" fill="none" xmlns="http://www.w3.org/2000/svg">
<path d="M12 2C6.47715 2 2 6.47715 2 12C2 17.5228 6.47715 22 12 22C17.5228 22 22 17.5228 22 12C22 6.47715 17.5228 2 12 2Z" fill="white" stroke="#101415" stroke-width="1.5" stroke-linecap="round" stroke-linejoin="round"/>
<path d="M11.9806 16C7.15851 16 5.03086 18.1676 4.58919 18.6884C4.53355 18.7541 4.53333 18.8454 4.58691 18.9127C5.11331 19.5739 8.00249 22.9055 12.4794 22.5C17.356 22.0583 19.4543 19.5098 19.8774 18.9213C19.929 18.8496 19.9207 18.7567 19.8576 18.695C19.3378 18.186 16.8232 16 11.9806 16Z" fill="#101415"/>
<path d="M4.271 18.3457C4.271 18.3457 6.50002 15.5 12 15.5C17.5 15.5 19.7291 18.3457 19.7291 18.3457" fill="#101415"/>
<path d="M4.271 18.3457C4.271 18.3457 6.50002 15.5 12 15.5C17.5 15.5 19.7291 18.3457 19.7291 18.3457C19.7291 18.3457 17 22 12 22C6.99999 22 4.271 18.3457 4.271 18.3457Z" stroke="#101415" stroke-width="1.5" stroke-linecap="round" stroke-linejoin="round"/>
<path d="M12 12C13.6569 12 15 10.6569 15 9C15 7.34315 13.6569 6 12 6C10.3431 6 9 7.34315 9 9C9 10.6569 10.3431 12 12 12Z" fill="#101415"/>
</svg>
