<svg width="172" height="338" viewBox="0 0 172 338" fill="none" xmlns="http://www.w3.org/2000/svg">
<path d="M-184.988 337.442H-198C-198 309.062 -190.605 281.173 -176.546 256.526C-162.487 231.88 -142.249 211.328 -117.83 196.9L86.8899 75.9342C108.848 62.9584 127.045 44.4769 139.686 22.3136C152.328 0.15033 158.976 -24.9287 158.976 -50.4487V-275H171.987V-50.4487C171.993 -22.6624 164.757 4.64487 150.992 28.7761C137.227 52.9073 117.411 73.0278 93.4999 87.1505L-111.22 208.116C-133.687 221.401 -152.304 240.318 -165.235 263.002C-178.165 285.686 -184.962 311.353 -184.953 337.468L-184.988 337.442Z" fill="black" fill-opacity="0.17"/>
</svg>
