<svg width="159" height="611" viewBox="0 0 159 611" fill="none" xmlns="http://www.w3.org/2000/svg">
<path d="M13.8749 612.442H0.863037C0.86308 584.062 8.25758 556.173 22.3168 531.526C36.376 506.88 56.614 486.328 81.0333 471.9L285.753 350.934C307.711 337.958 325.908 319.477 338.549 297.314C351.191 275.15 357.839 250.071 357.839 224.551V0H370.85V224.551C370.856 252.338 363.62 279.645 349.855 303.776C336.09 327.907 316.274 348.028 292.363 362.15L87.6434 483.116C65.1764 496.401 46.559 515.318 33.6285 538.002C20.698 560.686 13.9015 586.353 13.9096 612.468L13.8749 612.442Z" fill="black" fill-opacity="0.17"/>
</svg>
