<svg width="73" height="424" viewBox="0 0 73 424" fill="none" xmlns="http://www.w3.org/2000/svg">
<path d="M13.6661 424.408H0.654297C0.696666 405.773 5.57194 387.468 14.8031 371.285C24.0343 355.101 37.3053 341.593 53.3175 332.082L251.557 214.971C283.864 195.878 310.639 168.685 329.239 136.075C347.838 103.465 357.621 66.5651 357.621 29.0165V0.715332H370.633V29.0165C370.636 68.8288 360.265 107.954 340.543 142.53C320.822 177.105 292.432 205.937 258.176 226.178L59.9276 343.298C45.8651 351.658 34.2101 363.527 26.1016 377.743C17.9931 391.96 13.7084 408.038 13.6661 424.408Z" fill="black" fill-opacity="0.17"/>
</svg>
