<svg width="332" height="251" viewBox="0 0 332 251" fill="none" xmlns="http://www.w3.org/2000/svg">
<path d="M-25.1969 250.408H-38.2087C-38.1664 231.773 -33.2911 213.468 -24.0599 197.285C-14.8287 181.101 -1.55777 167.593 14.4545 158.082L212.694 40.9706C245.001 21.8778 271.776 -5.31522 290.375 -37.9251C308.975 -70.535 318.758 -107.435 318.758 -144.984V-173.285H331.77V-144.984C331.773 -105.171 321.402 -66.0462 301.68 -31.4704C281.959 3.10548 253.569 31.9369 219.313 52.1782L21.0646 169.298C7.00201 177.658 -4.65292 189.527 -12.7614 203.743C-20.8699 217.96 -25.1546 234.038 -25.1969 250.408Z" fill="black" fill-opacity="0.17"/>
</svg>
